PathFileType	4	(X/Y/Z)	21_1_39_p0_0-560_filt_butterworth.trc
DataRate	CameraRate	NumFrames	NumMarkers	Units	OrigDataRate	OrigDataStartFrame	OrigNumFrames
56.0	56.0	5	27	m	56.0	420	560
Frame#	Time	RHip			RKnee			RAnkle			RBigToe			RSmallToe			RHeel			LHip			LKnee			LAnkle			LBigToe			LSmallToe			LHeel			Neck			Head			Nose			RShoulder			RElbow			RWrist			RThumb			RIndex			RPinky			LShoulder			LElbow			LWrist			LThumb			LIndex			LPinky			
		X1	Y1	Z1	X2	Y2	Z2	X3	Y3	Z3	X4	Y4	Z4	X5	Y5	Z5	X6	Y6	Z6	X7	Y7	Z7	X8	Y8	Z8	X9	Y9	Z9	X10	Y10	Z10	X11	Y11	Z11	X12	Y12	Z12	X13	Y13	Z13	X14	Y14	Z14	X15	Y15	Z15	X16	Y16	Z16	X17	Y17	Z17	X18	Y18	Z18	X19	Y19	Z19	X20	Y20	Z20	X21	Y21	Z21	X22	Y22	Z22	X23	Y23	Z23	X24	Y24	Z24	X25	Y25	Z25	X26	Y26	Z26	X27	Y27	Z27	
420	7.5	0.2780006226938159	0.5051279526296356	1.027619287396701	0.2777191425263014	0.5118653227045269	1.4915666683039481	0.2658114725254331	0.6319211706163678	1.9553668302367395	0.26886709314134	0.44076618435526677	1.9847927116066655	0.3314904520354517	0.4886648382849196	1.9942792926768482	0.25027335390781363	0.6956692728276724	2.016057501577461	0.09051192204318596	0.5315034737679946	0.9880373446034995	0.08568289064518485	0.5806539913059655	1.510498626047969	0.1078725826904466	0.6441651877460465	1.9482453991999538	0.09416612191759174	0.44279537584011397	1.9862739483161092	0.048523396396837414	0.4959243657702363	1.9999440516577933	0.13302751709393473	0.718846034170335	2.0324107949184222	0.25716664723506855	0.41146016905996563	0.5664988735158459	0.3587103468601621	0.2633007589620759	0.32654192166732887	0.2980768945362481	0.2025366264402694	0.47242227555243543	0.3775225724092629	0.38556089856074666	0.624056025887878	0.4308806643795302	0.36450993041036883	0.8597068846491263	0.34411414653974076	0.21747769442075363	1.0174749056947552	0.24442483042905905	0.1520644884321064	1.0669002977133726	0.2603119506470143	0.14255134381976914	1.0742688624673518	0.3161198259647059	0.15077037459903367	1.0873914910050013	0.09036490913024839	0.42660956053954713	0.5517631119532521	-0.010459849863784017	0.5511134739585704	0.7571698124044042	-0.08001786086695988	0.48514711834637714	0.9526126377981263	-0.05179335742813961	0.4333450227108675	1.046807784647285	-0.0777657227594965	0.42955668457613894	1.0744575256667415	-0.10931309657387561	0.5012917470473268	1.0738699528157665
421	7.517857142857143	0.2797120547078097	0.5176514054094324	1.026424701348726	0.278225370012334	0.513700771872842	1.4945753856621908	0.26553816568562016	0.6318907439427426	1.9562485958793039	0.2709872554844615	0.45449852109764444	1.9927909513708626	0.3319218159304212	0.49554065418155685	1.9982539150637237	0.2479956319844711	0.6879546737234733	2.0117907577780603	0.09133781328171678	0.5345147180378481	0.9882456987736775	0.08696474372404954	0.57611846785188	1.5093890529121394	0.10666509838088255	0.6441125418620143	1.9521348361963273	0.09674362061958303	0.4382314781250284	1.9854462334622247	0.04841649939099092	0.49623296285461044	2.0001584275270163	0.1323800955961963	0.7191589604459754	2.0328088605821852	0.25604028922760086	0.41475401821239666	0.5650794477346212	0.3558159407563354	0.2642287527075837	0.32491992986272916	0.2942128608992068	0.20657930376545994	0.47018674295283974	0.37693812858087417	0.38834901753704215	0.6222231277442629	0.4308648931561264	0.36449906829759815	0.8598757074470874	0.3557203798581886	0.23439421065600186	1.0283223019295593	0.25790053529884793	0.15885263248495782	1.075311110292557	0.2802063650975028	0.15210553503050858	1.087442260346189	0.32523022540505897	0.1648694521376303	1.1022683865286798	0.09018165926178617	0.4265194136107504	0.5509338665537119	-0.01054714726213736	0.5467403586059009	0.7575398739397938	-0.07380102602569205	0.4617520359492807	0.9491904409426178	-0.05117873745010825	0.4255277316527589	1.0455924856559102	-0.07349182871635057	0.41392779750393527	1.0717588583320035	-0.1016343056712946	0.47982714865150355	1.0735516303202661
422	7.535714285714286	0.2815643994952094	0.5267434358043473	1.02564710010402	0.27893840390757796	0.5161105141807729	1.5014526915684328	0.2650759547964363	0.6342772509804769	1.9588098009029138	0.27340368044508356	0.46421619713139356	1.9984224638819093	0.33291476951158755	0.5014132363796507	2.0016229157091043	0.2462850532670185	0.6821617800009395	2.007419600664633	0.09167407225233817	0.5358923356594711	0.9924971216311393	0.08875899865511108	0.5697705081138076	1.5087352170674122	0.1057545247518265	0.64274939928891	1.9586917119575216	0.10093864045366902	0.4312786238197141	1.9825354229931522	0.048563964143365654	0.49503168268009967	1.999422253338936	0.13203976612872692	0.7196560930772162	2.0352045232774363	0.25405988891557246	0.41875580249209765	0.5633735938225335	0.35285417609059766	0.26374177440356483	0.32257405121591887	0.28938808588513737	0.21312583594404227	0.4693423819453149	0.3766238794080776	0.3903019761338098	0.6195829968311737	0.43043841164330077	0.3659244109909705	0.8601931876091593	0.36540927612806534	0.24703772754013228	1.0384142994351142	0.2745168154798691	0.17223196619410328	1.089940500267726	0.29822529839834705	0.16643428147167263	1.1064336624853675	0.3368365116177491	0.17970528512431316	1.1189262907565587	0.09045938852079738	0.4259850650988159	0.5506299236460647	-0.010484830451830494	0.5419532324176195	0.758193870255242	-0.06894603906931351	0.4448602524249675	0.950122587621602	-0.04851827655371531	0.41255785939696366	1.0446278827109396	-0.07103982174730868	0.39794204704907266	1.0693697122088153	-0.09115973295770358	0.45010425470208837	1.0732205787851659
423	7.553571428571429	0.2836950077219392	0.5311678870736996	1.0243342533820416	0.28004894955276766	0.5195685697166857	1.5078609136145371	0.2656371319341394	0.6383378779643024	1.9605643118896412	0.2759320767819952	0.47015427062430204	2.0015156550058433	0.3347590444279941	0.5056170658498009	2.003922308910502	0.2462971562585458	0.6823139463889921	2.003907897245231	0.09207077126754298	0.5376128687681199	0.9968937859137494	0.09008384742994241	0.5645802686188817	1.5087120692067544	0.10676099978674733	0.6387457523428703	1.9633555047982512	0.10651331050744553	0.42061296938240283	1.977491863974902	0.04958293892097845	0.4914022219121912	1.9984935305915115	0.13255135289156866	0.7200415004212711	2.037163247903922	0.25184969650835376	0.4211653517807792	0.5610411616063914	0.3499676931517472	0.2619496246179276	0.31897864489600586	0.2844091334303589	0.22115541711323639	0.46896203339964626	0.37556248001098474	0.3946846110301506	0.6172095690191981	0.42936955299872775	0.3696053479300394	0.8604553075339791	0.372808112430048	0.2542417136291933	1.0464518023902758	0.2918959273835193	0.1838922570493118	1.1081683781598892	0.3109753021660772	0.17731197345478322	1.1251632461694265	0.35198813366175086	0.19698330866157573	1.1360828881076444	0.09022606331284441	0.4255220369932081	0.5509048540004956	-0.010593677073386367	0.5372368757116269	0.7596300837993789	-0.06541016526342222	0.4320906584577375	0.9556636871466917	-0.04096676263591815	0.38973221325223323	1.0438703949186212	-0.0666699031240028	0.3731145671662437	1.0653352542597934	-0.08198712669926089	0.4172375713006969	1.0722978908849208
424	7.571428571428571	0.2863880557463454	0.5333697014883854	1.0220219743396695	0.2814632470767316	0.5230274620186544	1.5110116523464803	0.26782741844127844	0.6461498914134594	1.9624272274215713	0.2784074284765206	0.4744842081898788	2.0039611870426226	0.3376659477727329	0.5088224375918314	2.0054096914486124	0.24826612826737202	0.6904051967918754	2.002970819506709	0.09289257590401502	0.5411932070867344	0.9989573621579879	0.09050665677824249	0.562385211726469	1.5096685395515081	0.10964942548403933	0.633095029765844	1.9638761594171599	0.1113496071639189	0.4098998034738509	1.9723599444332427	0.05136547802870034	0.48634042614532863	1.9977643007305907	0.13413969655941527	0.7197565928423654	2.0369497673159334	0.25000041690465863	0.42123855091628226	0.5582951491444242	0.3462929185333332	0.2623390000640289	0.314148875784524	0.2798317617258525	0.23026969800362154	0.46789540843582866	0.37310874325213944	0.4026329933749124	0.615652552536929	0.42797141014897755	0.37425617514555726	0.8599242446740238	0.3791335229337856	0.26000081993308355	1.0533883717403842	0.307119351822223	0.1888866902330722	1.1254572703457018	0.32032855580612085	0.18234644113983944	1.138723889461532	0.36855992930645304	0.21502183120782353	1.1508195846742284	0.08874045732536825	0.4251474056816821	0.5517246018259986	-0.011085428640909946	0.5325182941513861	0.7622522751843761	-0.06247310361559442	0.4197701110347589	0.9629021539154916	-0.028432393077444947	0.3613754374860546	1.043052853539498	-0.05761931450710789	0.33828015861918337	1.0592962569353266	-0.07632642533722211	0.3857860216964397	1.070206827991504
